<?xml version="1.0" encoding="UTF-8" standalone="no"?>
<!-- Created with Inkscape (http://www.inkscape.org/) -->

<svg
   width="16mm"
   height="24mm"
   viewBox="0 0 16 24"
   version="1.1"
   id="svg783"
   inkscape:version="1.2.2 (b0a8486541, 2022-12-01)"
   sodipodi:docname="flame1.svg"
   xmlns:inkscape="http://www.inkscape.org/namespaces/inkscape"
   xmlns:sodipodi="http://sodipodi.sourceforge.net/DTD/sodipodi-0.dtd"
   xmlns="http://www.w3.org/2000/svg"
   xmlns:svg="http://www.w3.org/2000/svg">
  <sodipodi:namedview
     id="namedview785"
     pagecolor="#ffffff"
     bordercolor="#000000"
     borderopacity="0.25"
     inkscape:showpageshadow="2"
     inkscape:pageopacity="0.0"
     inkscape:pagecheckerboard="0"
     inkscape:deskcolor="#d1d1d1"
     inkscape:document-units="mm"
     showgrid="false"
     inkscape:zoom="2.5877449"
     inkscape:cx="324.99339"
     inkscape:cy="95.256683"
     inkscape:window-width="2560"
     inkscape:window-height="1374"
     inkscape:window-x="0"
     inkscape:window-y="29"
     inkscape:window-maximized="1"
     inkscape:current-layer="layer1" />
  <defs
     id="defs780" />
  <g
     inkscape:label="Layer 1"
     inkscape:groupmode="layer"
     id="layer1">
    <path
       class="cls-1"
       d="M 6.2610551,23.59012 C 6.4181319,23.762157 0.59303018,22.204052 0.29893625,17.3096 0.10718014,14.117973 2.2576364,12.866026 2.2576364,12.866026 c 0,0 -1.36065239,3.422366 1.2572945,3.422366 2.6179468,0 -1.579948,-5.361231 -1.3412728,-7.9658172 C 2.3861538,5.9988714 4.004521,5.3099138 4.2384362,5.0803972 4.4723514,4.8508804 3.4503323,9.1138569 4.7066068,8.9626124 5.9628812,8.8113679 8.1344172,3.8308969 7.304154,0.33311191 c 0,0 3.289773,2.71914059 2.810383,9.53574469 0,0 -0.447091,2.1447374 0.606888,1.7615304 1.053978,-0.383207 0.926481,-2.3742542 0.383512,-4.0208223 0,0 3.640986,2.1060091 1.724445,7.1610833 0,0 -1.862822,3.306182 -0.649047,3.944996 1.213776,0.638815 2.767884,-1.021614 2.576127,-2.961702 0,0 3.683825,5.284997 -3.89632,7.480694 0,0 -2.3207931,-2.579312 -0.339993,-6.830057 0,0 -1.3201935,-0.07623 -1.8420829,1.430096 0,0 0.3831722,-5.170036 -0.2233754,-7.276453 0,0 -2.512549,5.48924 -1.4691102,10.44199 0,0 -0.9581006,-0.102326 -1.0648585,-1.875271 -6.81e-4,-0.0028 -1.3630322,2.601325 0.3403331,4.465179 z"
       id="path757"
       style="fill:#de1f26;stroke-width:0.0372295" />
    <path
       style="fill:#ffdd55;stroke-width:0.264583"
       d="m 5.7014834,23.19297 c 1.4045827,-0.116816 2.9530791,0.24444 4.2786842,-0.204489 0.1230294,-0.04167 0.2639414,0.03259 0.3896804,0 0.0077,-0.002 0.189921,-0.195353 0.200112,-0.200109 0.216283,-0.100918 0.483394,-0.09378 0.742862,-0.09378"
       id="path1258" />
    <path
       style="fill:#ffdd55;stroke-width:0.386437"
       d="M 21.612632,85.469223 C 20.514216,82.945937 20.437405,78.691872 21.430014,75.355185 l 0.689752,-2.318621 0.463807,1.797464 c 0.255093,0.988605 0.765086,2.257274 1.133316,2.819264 0.632987,0.96606 2.377811,2.0713 2.723769,1.725339 0.08783,-0.08783 -0.02258,-1.029031 -0.245341,-2.091565 -0.222765,-1.062535 -0.403092,-4.540329 -0.400726,-7.728433 0.0047,-6.399493 0.62994,-11.043176 2.393243,-17.776095 1.104408,-4.217025 3.469956,-11.172295 3.716084,-10.926166 0.828999,0.828998 1.487985,23.478784 0.750693,25.801787 -0.14135,0.445356 -0.07053,0.775071 0.16648,0.775071 0.226863,0 0.412478,-0.200956 0.412478,-0.44657 0,-1.450292 3.616679,-4.572823 5.299774,-4.575665 l 0.855749,-0.0014 -0.703291,1.642357 c -2.629278,6.140002 -2.649583,14.386717 -0.04989,20.263747 0.643978,1.45582 0.660714,1.666544 0.132364,1.666544 -0.852055,0 -13.586241,1.113722 -15.064303,1.317514 -1.15143,0.158756 -1.270924,0.05417 -2.091337,-1.83049 z"
       id="path1329"
       transform="scale(0.26458333)" />
  </g>
</svg>
