<?xml version="1.0" encoding="UTF-8" standalone="no"?>
<svg
   version="1.1"
   x="0px"
   y="0px"
   viewBox="0 0 32 32"
   xml:space="preserve"
   id="svg44"
   sodipodi:docname="lander.svg"
   width="32"
   height="32"
   inkscape:version="1.2.2 (b0a8486541, 2022-12-01)"
   xmlns:inkscape="http://www.inkscape.org/namespaces/inkscape"
   xmlns:sodipodi="http://sodipodi.sourceforge.net/DTD/sodipodi-0.dtd"
   xmlns="http://www.w3.org/2000/svg"
   xmlns:svg="http://www.w3.org/2000/svg"><defs
     id="defs48" /><sodipodi:namedview
     id="namedview46"
     pagecolor="#ffffff"
     bordercolor="#000000"
     borderopacity="0.25"
     inkscape:showpageshadow="2"
     inkscape:pageopacity="0.0"
     inkscape:pagecheckerboard="0"
     inkscape:deskcolor="#d1d1d1"
     showgrid="false"
     inkscape:zoom="16.432"
     inkscape:cx="30.793574"
     inkscape:cy="18.896056"
     inkscape:window-width="2560"
     inkscape:window-height="1374"
     inkscape:window-x="0"
     inkscape:window-y="29"
     inkscape:window-maximized="1"
     inkscape:current-layer="svg44" /><g
     id="g201"
     style="fill:#ffffff"><g
       id="g16"
       transform="matrix(0.32868696,0,0,0.42936385,-0.45316773,-5.4901787)"
       style="fill:#ffffff"><path
         d="m 52.779,59.745 h -6.025 c -0.178,0 -0.322,-0.145 -0.322,-0.322 0,-0.177 0.144,-0.322 0.322,-0.322 h 6.025 c 0.178,0 0.322,0.145 0.322,0.322 0,0.177 -0.144,0.322 -0.322,0.322 z"
         id="path2"
         style="fill:#ffffff" /><path
         d="m 52.779,62.425 h -6.025 c -0.178,0 -0.322,-0.145 -0.322,-0.322 0,-0.177 0.144,-0.322 0.322,-0.322 h 6.025 c 0.178,0 0.322,0.146 0.322,0.322 10e-4,0.177 -0.144,0.322 -0.322,0.322 z"
         id="path4"
         style="fill:#ffffff" /><path
         d="m 52.779,65.104 h -6.025 c -0.178,0 -0.322,-0.144 -0.322,-0.322 0,-0.178 0.145,-0.322 0.322,-0.322 h 6.025 c 0.178,0 0.322,0.145 0.322,0.322 10e-4,0.179 -0.144,0.322 -0.322,0.322 z"
         id="path6"
         style="fill:#ffffff" /><path
         d="m 52.779,67.784 h -6.025 c -0.178,0 -0.322,-0.145 -0.322,-0.322 0,-0.177 0.145,-0.322 0.322,-0.322 h 6.025 c 0.178,0 0.322,0.145 0.322,0.322 0,0.177 -0.144,0.322 -0.322,0.322 z"
         id="path8"
         style="fill:#ffffff" /><path
         d="m 52.779,70.465 h -6.025 c -0.178,0 -0.322,-0.145 -0.322,-0.322 0,-0.177 0.145,-0.322 0.322,-0.322 h 6.025 c 0.178,0 0.322,0.145 0.322,0.322 0,0.177 -0.144,0.322 -0.322,0.322 z"
         id="path10"
         style="fill:#ffffff" /><path
         d="m 52.779,73.145 h -6.025 c -0.178,0 -0.322,-0.145 -0.322,-0.322 0,-0.177 0.144,-0.322 0.322,-0.322 h 6.025 c 0.178,0 0.322,0.145 0.322,0.322 0,0.177 -0.144,0.322 -0.322,0.322 z"
         id="path12"
         style="fill:#ffffff" /><path
         d="m 52.779,75.824 h -6.025 c -0.178,0 -0.322,-0.145 -0.322,-0.322 0,-0.177 0.144,-0.322 0.322,-0.322 h 6.025 c 0.178,0 0.322,0.145 0.322,0.322 0,0.177 -0.144,0.322 -0.322,0.322 z"
         id="path14"
         style="fill:#ffffff" /></g><g
       id="g38"
       transform="matrix(0.32868696,0,0,0.42936385,-0.45316773,-5.4901787)"
       style="fill:#ffffff"><path
         d="m 45.32,47.589 c 0,0.535 0.435,0.97 0.97,0.97 h 7.2 c 0.537,0 0.958,-0.426 0.958,-0.97 v -6.027 c 0,-0.274 -0.107,-0.518 -0.282,-0.693 0.139,-0.177 0.23,-0.4 0.228,-0.669 l -0.226,-1.096 c 0,-0.544 -0.426,-0.97 -0.97,-0.97 h -6.676 c -0.536,0 -0.971,0.435 -0.965,0.907 l -0.237,1.222 c 0,0.252 0.102,0.477 0.259,0.649 -0.157,0.173 -0.259,0.397 -0.259,0.649 z m 8.484,0 c 0,0.189 -0.132,0.327 -0.313,0.327 h -7.2 c -0.157,0 -0.327,-0.125 -0.327,-0.327 v -6.027 c 0,-0.202 0.169,-0.328 0.327,-0.328 h 7.14 0.061 c 0.182,0 0.313,0.138 0.313,0.328 v 6.027 z m -7.609,-8.485 c 0,-0.202 0.17,-0.327 0.328,-0.327 h 6.676 c 0.191,0 0.325,0.134 0.332,0.39 l 0.226,1.096 c 0,0.193 -0.134,0.328 -0.326,0.328 h -7.14 c -0.18,0 -0.327,-0.147 -0.333,-0.265 z"
         id="path18"
         style="fill:#ffffff" /><path
         d="M 97.776,83.888 C 97.722,83.784 97.616,83.72 97.5,83.72 h -4.141 l -3.237,-6.878 0.036,-0.018 c 0.159,-0.076 0.227,-0.267 0.152,-0.427 L 83.041,60.896 C 82.969,60.743 82.792,60.683 82.638,60.74 l -1.527,-2.795 c -0.047,-0.086 -0.126,-0.138 -0.215,-0.163 l 0.466,-0.706 c 0.054,-0.081 0.067,-0.183 0.038,-0.275 -0.03,-0.093 -0.101,-0.167 -0.191,-0.202 l -8.962,-3.438 c -0.015,-0.006 -0.028,0.005 -0.044,10e-4 -0.061,-0.066 -0.144,-0.11 -0.24,-0.11 H 71.96 l 4.335,-4.211 c 0.012,-0.011 0.009,-0.03 0.018,-0.042 0.02,-0.024 0.046,-0.042 0.058,-0.072 0.008,-0.021 -0.005,-0.04 -10e-4,-0.061 0.004,-0.021 0.023,-0.035 0.023,-0.056 v -5.702 c 0,-0.02 -0.019,-0.033 -0.022,-0.052 -0.003,-0.02 0.01,-0.038 0.003,-0.057 -0.009,-0.025 -0.036,-0.034 -0.05,-0.055 -0.014,-0.021 -0.011,-0.049 -0.028,-0.066 L 71.737,38.227 C 71.719,38.21 71.691,38.213 71.671,38.2 c -0.02,-0.013 -0.027,-0.038 -0.051,-0.046 -0.019,-0.007 -0.036,0.006 -0.055,0.003 -0.02,-0.003 -0.033,-0.021 -0.053,-0.021 h -0.433 c -0.03,-0.146 -0.143,-0.264 -0.298,-0.264 -0.018,0 -1.294,0.071 -1.996,0.425 V 37.31 c 0,-0.159 -0.115,-0.293 -0.272,-0.318 l -0.529,-0.083 c 0.324,-0.704 0.388,-1.874 0.388,-1.891 0,-0.178 -0.145,-0.322 -0.322,-0.322 h -1.273 c -0.085,0 -0.167,0.034 -0.228,0.094 -0.061,0.06 -0.095,0.142 -0.095,0.228 0,0.015 0.05,0.99 0.303,1.697 L 66.41,36.66 v -2.939 c 0,-0.032 -0.006,-0.063 -0.016,-0.093 -0.001,-0.002 0,-0.004 -0.001,-0.006 -0.001,-0.002 0,-0.004 -0.001,-0.006 L 63.895,26.388 C 63.893,26.381 63.884,26.38 63.881,26.373 63.858,26.315 63.823,26.262 63.77,26.226 l -0.404,-0.273 0.237,-1.744 0.259,-0.145 0.101,1.664 c 0.01,0.171 0.152,0.302 0.321,0.302 0.006,0 0.013,0 0.02,0 0.178,-0.011 0.313,-0.163 0.302,-0.341 l -0.119,-1.973 0.539,-0.301 1.591,0.915 c 0.05,0.029 0.105,0.043 0.16,0.043 0.111,0 0.22,-0.058 0.279,-0.162 0.089,-0.154 0.035,-0.351 -0.119,-0.44 L 65.68,23.05 65.961,22.893 c 0.078,-0.043 0.134,-0.118 0.155,-0.205 0.021,-0.086 0.006,-0.178 -0.043,-0.253 l -0.981,-1.498 c -0.05,-0.075 -0.128,-0.126 -0.216,-0.141 -0.093,-0.015 -0.181,0.007 -0.251,0.063 l -0.208,0.161 -0.043,-1.051 c -0.007,-0.177 -0.169,-0.303 -0.334,-0.309 -0.178,0.007 -0.316,0.157 -0.309,0.335 l 0.062,1.507 -0.404,0.312 -1.411,-0.779 c -0.155,-0.087 -0.351,-0.031 -0.438,0.126 -0.086,0.156 -0.029,0.352 0.127,0.438 l 1.167,0.645 -0.606,0.469 c -0.134,0.104 -0.164,0.293 -0.07,0.434 l 0.163,0.244 -1.393,0.917 -2.311,-1.559 c -0.053,-0.036 -0.115,-0.055 -0.18,-0.055 h -5.799 v -2.228 c 0,-0.152 -0.115,-0.261 -0.257,-0.295 0.717,-0.669 1.173,-1.615 1.173,-2.673 0,-2.005 -1.637,-3.636 -3.647,-3.636 -2.019,0 -3.661,1.631 -3.661,3.636 0,1.059 0.458,2.005 1.179,2.674 -0.141,0.035 -0.253,0.143 -0.253,0.293 v 2.228 h -6.007 c -0.077,0 -0.152,0.027 -0.21,0.078 l -0.096,0.083 h -8.636 c -0.01,-0.017 -0.005,-0.037 -0.018,-0.052 -0.119,-0.134 -0.323,-0.146 -0.455,-0.028 l -1.517,1.344 c 0.062,-0.266 0.102,-0.54 0.102,-0.824 0,-2.003 -1.64,-3.633 -3.657,-3.633 -2.019,0 -3.661,1.63 -3.661,3.633 0,2.018 1.642,3.66 3.661,3.66 0.797,0 1.529,-0.263 2.13,-0.698 0.007,0.01 0.004,0.023 0.013,0.033 l 1.534,1.615 -0.05,0.048 -0.797,-0.845 c -0.122,-0.13 -0.326,-0.136 -0.455,-0.014 l -1.084,1.021 c -0.063,0.059 -0.099,0.14 -0.101,0.225 -0.002,0.085 0.029,0.168 0.088,0.23 l 2.059,2.179 c 0.059,0.062 0.14,0.099 0.226,0.101 0.002,0 0.005,0 0.008,0 0.083,0 0.162,-0.032 0.222,-0.089 l 1.07,-1.02 c 0.125,-0.119 0.134,-0.317 0.019,-0.447 l -0.123,-0.138 0.475,-0.45 0.149,0.149 c 0.124,0.125 0.323,0.126 0.45,0.005 l 1.066,-1.021 c 0.062,-0.059 0.097,-0.14 0.099,-0.226 0.002,-0.086 -0.03,-0.168 -0.089,-0.229 L 31.5,25.204 c -0.123,-0.129 -0.326,-0.133 -0.455,-0.01 l -1.066,1.02 c -0.062,0.059 -0.097,0.14 -0.099,0.226 -0.002,0.086 0.03,0.168 0.089,0.23 l 0.799,0.835 -0.065,0.063 -1.531,-1.611 c 0.093,-0.087 0.175,-0.182 0.259,-0.278 0.007,-0.005 0.018,-0.003 0.024,-0.009 l 1.818,-1.61 h 1.284 l 4.073,2.213 -1.492,0.886 c -0.073,0.043 -0.126,0.115 -0.147,0.197 l -1.578,6.218 c -0.003,0.005 -10e-4,0.011 -0.004,0.016 l -0.034,0.133 v 2.934 l -0.349,0.055 c 0.251,-0.707 0.306,-1.677 0.306,-1.692 0,-0.178 -0.144,-0.322 -0.322,-0.322 h -1.278 c -0.178,0 -0.322,0.144 -0.322,0.322 0,0.017 0.057,1.182 0.383,1.887 l -0.556,0.087 c -0.156,0.024 -0.271,0.159 -0.271,0.318 v 0.992 c -0.689,-0.358 -1.952,-0.432 -1.969,-0.432 -0.178,0 -0.322,0.144 -0.322,0.322 v 1.283 c 0,0.178 0.144,0.322 0.322,0.322 0.018,0 1.28,-0.058 1.969,-0.42 v 0.934 c 0,0.141 0.091,0.265 0.225,0.307 l 0.676,0.212 c -0.26,0.39 -0.375,1.026 -0.417,1.439 h -0.089 c -0.149,0 -0.28,0.099 -0.32,0.242 l -2.994,10.54 h -0.209 c -0.031,0 -0.051,0.025 -0.08,0.033 -0.012,0.003 -0.023,-0.006 -0.035,-10e-4 l -8.995,3.431 c -0.091,0.035 -0.162,0.109 -0.192,0.202 -0.03,0.093 -0.016,0.194 0.038,0.276 l 0.474,0.718 c -0.076,0.028 -0.146,0.078 -0.188,0.155 l -1.532,2.785 c -0.066,-0.02 -0.135,-0.033 -0.2,-0.01 -0.081,0.028 -0.146,0.089 -0.183,0.166 L 9.65,76.359 c -0.036,0.077 -0.041,0.166 -0.011,0.246 0.029,0.08 0.089,0.146 0.166,0.183 L 9.829,76.8 6.614,83.645 H 2.5 c -0.114,0 -0.219,0.063 -0.273,0.162 -0.054,0.099 -0.05,0.222 0.011,0.317 0.756,1.179 2.78,1.971 5.036,1.971 2.279,0 4.104,-0.975 4.901,-1.94 0.077,-0.093 0.093,-0.222 0.042,-0.331 -0.051,-0.109 -0.161,-0.179 -0.282,-0.179 H 8.238 l 2.925,-6.22 0.033,0.016 c 0.043,0.02 0.09,0.03 0.137,0.03 0.037,0 0.074,-0.007 0.109,-0.02 0.081,-0.029 0.146,-0.089 0.182,-0.166 l 0.539,-1.15 8.304,-2.619 h 7.325 c 0.074,0 0.146,-0.025 0.203,-0.072 l 1.382,-1.123 h 1.751 c 0.045,0.024 0.086,0.059 0.141,0.059 1.978,0 3.527,1.54 3.527,3.506 0,0.178 0.144,0.322 0.322,0.322 h 8.57 l -0.866,4.91 c -0.017,0.094 0.009,0.189 0.07,0.263 0.061,0.074 0.151,0.115 0.247,0.115 h 5.844 v 2.149 h -3.804 c -0.115,0 -0.22,0.063 -0.274,0.164 -0.054,0.101 -0.049,0.224 0.015,0.319 0.776,1.176 2.799,1.967 5.035,1.967 2.312,0 4.151,-1.01 4.882,-1.947 0.073,-0.094 0.087,-0.221 0.035,-0.328 -0.053,-0.106 -0.161,-0.175 -0.28,-0.175 H 50.6 v -2.149 h 5.743 c 0.095,0 0.186,-0.042 0.247,-0.115 0.061,-0.073 0.087,-0.169 0.07,-0.263 l -0.863,-4.91 h 9.111 c 0.178,0 0.322,-0.145 0.322,-0.322 0,-1.966 1.541,-3.506 3.508,-3.506 0.055,0 0.096,-0.034 0.142,-0.059 h 1.609 l 1.479,1.2 v 0.001 h 10e-4 l 0.002,0.002 c 0.058,0.047 0.129,0.072 0.203,0.072 h 7.324 l 8.346,2.595 0.533,1.131 c 0.036,0.077 0.103,0.137 0.184,0.166 0.034,0.012 0.071,0.019 0.107,0.019 0.046,0 0.091,-0.011 0.134,-0.031 l 2.932,6.245 H 88.04 c -0.119,0 -0.229,0.068 -0.28,0.176 -0.051,0.108 -0.038,0.235 0.036,0.329 0.889,1.121 2.896,1.903 4.883,1.903 2.268,0 4.261,-0.753 5.077,-1.918 0.065,-0.096 0.074,-0.221 0.02,-0.323 z M 67.707,35.339 c -0.048,0.449 -0.177,1.01 -0.298,1.302 -0.121,-0.29 -0.247,-0.848 -0.293,-1.302 z m -37.049,-8.882 0.601,-0.575 1.641,1.714 -0.606,0.58 -0.148,-0.148 c -0.122,-0.123 -0.323,-0.126 -0.449,-0.006 l -0.928,0.881 c -0.126,0.12 -0.134,0.317 -0.019,0.447 l 0.123,0.138 -0.611,0.583 -1.615,-1.709 0.615,-0.579 0.8,0.849 c 0.059,0.063 0.141,0.099 0.227,0.101 0.083,-0.011 0.169,-0.03 0.231,-0.09 l 0.928,-0.897 c 0.127,-0.123 0.131,-0.326 0.009,-0.454 z m -6.996,-3.163 c 0,-1.648 1.354,-2.99 3.017,-2.99 1.661,0 3.013,1.341 3.013,2.99 0,1.663 -1.352,3.016 -3.013,3.016 -1.664,0 -3.017,-1.353 -3.017,-3.016 z m 9.007,12.045 c -0.049,0.449 -0.179,1.012 -0.3,1.306 -0.122,-0.287 -0.249,-0.848 -0.296,-1.306 z m -3.35,3.795 v -0.601 c 0.448,0.049 1.009,0.182 1.302,0.305 -0.287,0.122 -0.846,0.249 -1.302,0.296 z M 7.273,85.472 c -1.675,0 -3.237,-0.477 -4.084,-1.204 h 3.593 c 0.014,0.002 0.027,0.011 0.042,0.011 h 0.912 c 0.013,0 0.024,-0.009 0.037,-0.011 h 3.38 c -0.847,0.643 -2.24,1.204 -3.88,1.204 z m 74.712,-24.461 -0.252,0.12 -0.854,-2.145 z m -5.247,1.91 v -0.218 c 0,-0.894 -0.72,-1.621 -1.604,-1.621 -0.919,0 -1.612,0.697 -1.612,1.621 v 3.025 H 72.295 V 53.869 l 8.309,3.188 z m -0.672,7.144 -0.701,-0.563 c -0.012,-0.014 -0.01,-0.034 -0.024,-0.046 -0.016,-0.013 -0.036,-0.007 -0.054,-0.017 l -1.12,-0.899 v -0.551 l 1.927,-2.923 v 4.869 c 0,0.045 -0.021,0.086 -0.028,0.13 z m -1.899,-0.129 v -0.57 l 0.498,0.399 -0.428,0.517 c -0.042,-0.109 -0.07,-0.224 -0.07,-0.346 z M 60.661,71.654 V 63.12 c 0,-0.178 -0.145,-0.322 -0.322,-0.322 h -2.447 v -4.037 l 8.678,-2.757 c 0.625,0.216 1.443,0.357 2.277,0.389 l 2.745,2.38 c 0.011,0.01 0.026,0.007 0.038,0.015 V 71.655 H 60.661 Z m -10.704,9.197 h -0.331 v -3.345 h 0.331 z M 28.171,71.654 V 58.627 l 2.581,-2.229 c 0.811,-0.013 1.618,-0.134 2.263,-0.329 l 4.595,1.397 h -7.64 c -0.178,0 -0.322,0.145 -0.322,0.322 v 11.476 c 0,0.178 0.144,0.322 0.322,0.322 h 9.337 c 0.178,0 0.322,-0.145 0.322,-0.322 V 58.08 l 2.249,0.684 V 71.655 H 28.171 Z m 1.638,-15.294 -1.638,1.415 v -1.91 c 0.464,0.294 1.073,0.437 1.638,0.495 z m 3.498,-14.091 c -0.024,-0.213 -0.071,-0.472 -0.143,-0.733 l 2.369,2.293 -0.427,1.209 -1.076,-1.307 v -1.129 c 0,-0.088 -0.035,-0.173 -0.098,-0.235 -0.063,-0.062 -0.147,-0.098 -0.235,-0.098 z M 37.753,25.53 34.937,24.058 h 4.525 z m 1.429,6.094 1.188,0.248 4.28,5.212 -0.25,2.27 h -7.599 c -0.001,-0.068 -0.01,-0.134 -0.01,-0.203 0.001,-2.801 0.89,-5.394 2.391,-7.527 z m 8.128,-6.989 h 0.184 4.822 0.176 l 0.152,1.028 c -0.885,-0.18 -1.8,-0.276 -2.737,-0.276 -0.941,0 -1.861,0.096 -2.75,0.277 z m 2.597,1.396 c 0.976,0 1.924,0.116 2.84,0.321 l 0.112,0.76 h -5.917 l 0.113,-0.759 c 0.92,-0.206 1.872,-0.322 2.852,-0.322 z M 65.195,37.2 v 3.768 l -1.809,0.686 c 0.118,-0.636 0.186,-1.288 0.212,-1.952 10e-4,-0.01 0.012,-0.017 0.012,-0.027 0,-0.008 -0.009,-0.013 -0.009,-0.021 0.006,-0.168 0.025,-0.333 0.025,-0.503 0,-0.605 -0.053,-1.198 -0.129,-1.783 z m 10.553,10.937 -3.994,-1.556 v -1.78 l 3.994,-1.437 z m -2.226,19.661 -0.503,0.763 h -0.724 v -2.188 h 1.227 z M 71.63,57.953 69.81,56.375 c 0.612,-0.047 1.306,-0.182 1.82,-0.505 z M 60.017,71.654 h -2.125 v -8.212 h 2.125 z m -23.783,-27.877 -0.18,-1.557 0.503,0.189 c 0.468,1.903 1.33,3.649 2.502,5.15 0.016,0.023 0.025,0.044 0.047,0.063 1.051,1.33 2.343,2.457 3.81,3.325 l -1.565,1.674 -5.766,-7.003 z m 8.429,-7.694 -3.529,-4.297 4.093,-0.854 z m 1.661,-8.328 h 0.245 6.664 0.233 l 0.302,2.729 c -0.004,0.026 -0.013,0.051 -0.01,0.077 l 0.695,6.353 c 0.004,0.031 0.023,0.054 0.035,0.082 l 1.495,13.517 H 43.821 Z M 60.293,47.062 H 56.25 l -0.782,-7.065 h 7.472 c -0.171,2.647 -1.128,5.077 -2.647,7.065 z M 57.226,70.666 53.102,62.682 V 58.53 c 0,-0.178 -0.145,-0.322 -0.322,-0.322 -0.177,0 -0.322,0.145 -0.322,0.322 v 2.904 L 50.6,57.839 v -2.425 h 5.743 c 0.178,0 0.322,-0.145 0.322,-0.322 v -1.375 h 0.561 V 70.666 Z M 50.327,59.131 V 71.654 H 49.255 V 59.131 h 0.049 0.975 z m -1.073,16.432 v -1.512 h 1.072 v 1.512 z m 0,-2.157 V 72.32 h 1.072 v 1.086 z M 34.029,51.713 v -2.249 l 1.632,-1.703 -0.691,4.456 z m 1.135,1.338 h -1.135 v -0.606 z m 1.366,0 -0.957,-0.512 0.772,-4.983 4.524,5.495 z m 5.681,0 H 41.83 l 1.023,-1.095 -0.271,1.095 z m 0.979,-2.69 c -1.196,-0.715 -2.27,-1.61 -3.179,-2.655 h 3.471 z m 0.473,1 c 1.876,0.958 3.995,1.51 6.244,1.51 2.24,0 4.351,-0.551 6.22,-1.507 l 0.36,1.687 H 43.246 Z m 1.059,-0.205 h 10.355 c -1.587,0.687 -3.334,1.07 -5.17,1.07 -1.842,10e-4 -3.594,-0.383 -5.185,-1.07 z m -0.938,2.561 h 12.237 v 1.053 h -5.742 -0.975 -5.52 z m 6.173,1.697 v 1.288 c -0.014,-0.01 -0.016,-0.028 -0.031,-0.036 -0.008,-0.004 -0.017,0.002 -0.025,-0.002 -0.04,-0.017 -0.08,-0.01 -0.124,-0.009 -0.042,0 -0.079,-0.007 -0.117,0.01 -0.009,0.003 -0.018,-0.003 -0.027,0.002 -0.003,0.002 -0.003,0.006 -0.007,0.008 v -1.261 z m -0.173,2.247 0.173,0.335 v 0.49 h -0.331 v -0.511 z m 15.971,-3.12 -4.551,-0.824 h 4.551 z m 0,-1.577 -5.99,-1.567 5.989,-6.707 z m -2.212,0.087 h -5.255 l 0.995,-1.114 z m -6.119,0 h -0.279 l -0.378,-1.773 1.816,0.476 z m -1.103,-5.345 h 3.451 c -0.904,1.042 -1.97,1.935 -3.158,2.649 z m -1.855,-16.77 4.068,0.85 -3.502,4.27 z M 43.553,47.062 h -4.064 c -1.523,-1.988 -2.483,-4.418 -2.655,-7.065 h 7.496 z m -7.845,-0.28 -1.679,1.752 v -2.523 h 1.044 z M 34.03,45.368 v -0.624 l 0.514,0.624 z m -0.002,8.349 h 4.477 l -4.477,0.798 z m 8.516,0 h 0.115 c 0.028,0.018 0.043,0.049 0.077,0.057 0.026,0.007 0.052,0.01 0.078,0.01 0.071,0 0.138,-0.025 0.193,-0.066 h 0.133 v 1.375 c 0,0.178 0.144,0.322 0.322,0.322 h 5.52 v 2.408 l -1.906,3.784 V 58.53 c 0,-0.178 -0.144,-0.322 -0.322,-0.322 -0.178,0 -0.322,0.145 -0.322,0.322 v 4.354 l -3.888,7.718 z m 3.888,10.597 v 7.34 h -3.698 z m 0.644,-1.277 1.535,-3.047 v 11.664 h -1.535 z m 1.535,9.283 v 1.086 H 47.076 V 72.32 Z m 0,1.731 v 1.512 h -1.535 v -1.512 z m 2.359,1.512 v -1.512 h 1.487 v 1.512 z m 0,-2.157 V 72.32 h 1.487 v 1.086 z m 0,-1.752 V 59.958 l 1.487,2.879 v 8.817 z m 2.132,-7.57 3.91,7.57 h -3.91 z m 4.79,-10.313 7.863,1.424 v 0.229 c 0,0.054 0.016,0.105 0.039,0.151 l -7.902,2.511 z m 8.529,1.457 -0.001,-12.293 h 1.759 l 3.435,12.047 c -0.259,0.468 -1.17,0.754 -2.425,0.754 -1.042,-10e-4 -2.159,-0.21 -2.768,-0.508 z m 4.688,-10.479 v 1.992 l -0.662,1.721 -1.456,-5.105 z m -3.985,-2.48 c 0.054,-0.443 0.188,-0.927 0.264,-1.084 0.118,0.184 0.257,0.655 0.312,1.084 z m 3.616,7.222 0.876,-2.273 3.87,1.508 -3.886,3.778 z m 0.734,-5.273 -1.352,-0.889 1.525,-4.292 3.83,3.741 z m -0.78,-4.426 -1.127,3.172 -0.814,-0.535 0.018,-2.075 c 0.003,-0.016 0.015,-0.028 0.015,-0.044 v -0.927 c 0.6,0.306 1.613,0.391 1.908,0.409 z m -2.576,1.469 C 68.06,41.098 67.994,40.946 67.91,40.822 l 0.213,-0.067 z m -1.639,1.008 h -0.392 c -0.088,0 -0.173,0.035 -0.235,0.098 -0.062,0.063 -0.098,0.147 -0.098,0.235 v 1.121 l -6.689,7.491 -1.835,-0.48 c 2.952,-1.874 5.137,-4.838 5.991,-8.327 l 2.264,-0.859 c 0.012,10e-4 0.021,0.011 0.033,0.011 0.032,0 0.065,-0.005 0.097,-0.015 l 1.108,-0.349 c -0.138,0.361 -0.212,0.774 -0.244,1.074 z M 62.982,39.15 c 0,0.068 -0.009,0.134 -0.01,0.203 H 55.396 L 55.13,36.951 59.322,31.84 60.55,31.585 c 0.006,-0.001 0.008,-0.007 0.013,-0.009 1.518,2.142 2.419,4.752 2.419,7.574 z m -3.925,-7.913 -4.665,-0.974 -0.317,-2.865 c -0.019,-0.163 -0.156,-0.286 -0.32,-0.286 H 53.51 l -0.087,-0.585 c 2.689,0.755 5.028,2.347 6.72,4.484 z M 46.291,27.112 h -0.256 c -0.164,0 -0.302,0.124 -0.32,0.287 l -0.312,2.839 -4.856,1.013 -0.939,-0.196 c 1.699,-2.158 4.057,-3.767 6.771,-4.527 z M 36.148,39.15 c 0,0.857 0.089,1.693 0.241,2.508 l -1.831,-0.69 V 37.2 l 1.719,0.168 c -0.076,0.585 -0.129,1.177 -0.129,1.782 z m -2.008,2.393 c 0.032,0.01 0.064,0.015 0.097,0.015 0.012,0 0.021,-0.01 0.033,-0.011 l 1.106,0.417 0.106,0.917 -1.402,-1.357 z M 34.028,55.424 V 55.17 l 7.85,-1.399 v 4.321 l -7.969,-2.424 c 0.07,-0.064 0.119,-0.147 0.119,-0.244 z m 4.958,2.686 V 68.941 H 30.293 V 58.11 Z m 3.413,14.21 h 4.033 v 1.086 h -4.58 z m 4.033,1.731 v 1.512 h -0.471 l -4.489,-1.512 z m 2.179,2.185 v 0.219 l -0.649,-0.219 z m 1.156,0.608 -0.512,-0.172 v -0.436 h 1.072 v 0.417 z m 1.203,-0.608 h 0.584 l -0.584,0.199 z m 2.132,-0.673 v -1.512 h 4.885 l -4.448,1.512 z m 0,-2.157 V 72.32 h 4.254 l 0.562,1.086 z m 19.194,-4.201 h 0.299 l -0.299,0.453 z m 2.872,0.964 0.59,0.474 c -0.171,0.153 -0.388,0.256 -0.623,0.256 -0.171,0 -0.322,-0.056 -0.462,-0.133 z M 74.167,66.82 v -1.092 -2.703 h 1.927 v 0.873 z m 0.06,-4.439 c 0.125,-0.391 0.463,-0.654 0.908,-0.654 0.417,0 0.764,0.275 0.896,0.654 z M 70.459,38.533 v 0.602 c -0.466,-0.046 -1.039,-0.174 -1.334,-0.296 0.302,-0.125 0.877,-0.257 1.334,-0.306 z m -2.318,0.082 -0.012,1.462 -2.289,0.72 v -1.149 c 0.149,0.092 0.314,0.16 0.502,0.16 0.535,0 0.972,-0.438 0.972,-0.978 0,-0.529 -0.445,-0.975 -0.972,-0.975 -0.186,0 -0.352,0.069 -0.502,0.164 v -0.797 l 2.301,0.363 z M 66.01,38.83 c 0,-0.173 0.158,-0.332 0.332,-0.332 0.175,0 0.327,0.155 0.327,0.332 0,0.188 -0.144,0.334 -0.327,0.334 -0.183,0 -0.332,-0.15 -0.332,-0.334 z m -0.443,-2.303 c -0.021,-0.004 -0.042,0.002 -0.063,0.003 -0.006,0 -0.012,-0.006 -0.018,-0.006 l -1.121,0.111 -0.157,-3.526 1.557,0.807 v 2.642 z m -1.556,-7.83 1.508,4.366 -1.344,-0.697 z m 0.733,-7.115 0.601,0.917 -0.384,0.214 c -0.106,0.004 -0.209,0.042 -0.267,0.142 -0.001,0.002 0,0.005 -0.001,0.008 l -1.423,0.793 -0.174,-0.261 c -0.008,-0.04 0.001,-0.081 -0.022,-0.116 -0.023,-0.036 -0.066,-0.044 -0.1,-0.067 l -0.115,-0.173 z m -2.066,2.344 0.223,0.334 c 0.011,0.016 0.027,0.022 0.039,0.036 l -0.17,1.254 -1.264,-0.853 z m -4.339,-0.589 4.937,3.332 0.449,10.029 -0.323,0.032 C 62.458,31.42 58.473,27.167 53.321,25.835 l -0.232,-1.57 C 53.066,24.107 52.93,23.991 52.771,23.991 H 52.64 V 23.337 Z M 46.89,17.498 c 0,-1.65 1.354,-2.993 3.017,-2.993 1.656,0 3.003,1.343 3.003,2.993 0,1.664 -1.347,3.017 -3.003,3.017 -1.663,0 -3.017,-1.353 -3.017,-3.017 z m 3.017,3.661 c 0.564,0 1.093,-0.14 1.57,-0.371 h 0.517 v 3.204 h -4.178 v -3.204 h 0.515 c 0.48,0.231 1.01,0.371 1.576,0.371 z m -2.735,2.833 h -0.14 c -0.16,0 -0.295,0.117 -0.318,0.274 l -0.233,1.571 c -3.622,0.934 -6.667,3.3 -8.492,6.466 v -6.126 l 3.296,-2.839 h 5.888 v 0.654 z M 32.177,23.257 c 0.024,-0.021 0.023,-0.054 0.039,-0.08 h 8.269 l -0.648,0.559 h -5.555 -1.683 -0.961 z m 1.054,0.801 h 1.01 l 3.25,1.698 -0.013,0.011 -0.526,0.313 z m 2.351,3.585 1.764,-1.047 v 5.599 l -3.191,1.04 z m -1.572,6.315 3.335,-1.086 v 0.69 c -0.446,1 -0.773,2.062 -0.971,3.169 l -2.107,-0.206 c -0.015,-0.002 -0.029,0.004 -0.044,0.005 -0.013,0 -0.024,-0.004 -0.038,-0.002 l -0.168,0.026 z m -2.4,3.627 2.305,-0.363 v 0.799 c -0.151,-0.096 -0.318,-0.166 -0.506,-0.166 -0.521,0 -0.978,0.456 -0.978,0.975 0,0.53 0.448,0.978 0.978,0.978 0.189,0 0.356,-0.068 0.506,-0.162 v 1.151 L 31.61,40.073 Z m 2.133,1.245 c 0,0.188 -0.147,0.334 -0.334,0.334 -0.178,0 -0.334,-0.156 -0.334,-0.334 0,-0.167 0.166,-0.332 0.334,-0.332 0.177,0.001 0.334,0.156 0.334,0.332 z m -1.395,2.358 c 0.118,0.189 0.257,0.66 0.313,1.081 h -0.566 c 0.051,-0.446 0.177,-0.92 0.253,-1.081 z m -0.735,1.747 h 1.751 l -10e-4,10.448 c 0,10e-4 0,10e-4 0,10e-4 0,0 0,0 0,10e-4 v 1.843 c -0.606,0.299 -1.716,0.508 -2.75,0.508 -1.248,0 -2.157,-0.287 -2.421,-0.755 z m -4.108,10.92 v 4.581 c -0.02,0.061 -0.018,0.113 0,0.176 V 69.364 L 19.333,56.972 Z m -8.367,4.962 -0.897,2.244 -0.267,-0.127 z M 7.531,83.634 h -0.2 l 3.082,-6.561 0.167,0.078 z M 11.177,76.72 11.093,76.68 10.41,76.339 C 10.399,76.334 10.387,76.334 10.376,76.33 l 6.985,-14.893 0.795,0.368 z m 7.726,-14.991 c 0.051,-0.109 0.018,-0.22 -0.048,-0.312 l 0.996,-2.489 6.176,9.365 -5.762,4.612 -7.732,2.438 z m 5.895,8.372 2.306,2.771 h -5.768 z m 3.037,2.641 -2.534,-3.045 1.082,-0.865 1.122,1.702 v 1.453 c 0,0.184 0.149,0.333 0.333,0.333 h 0.517 z m 5.548,-0.422 h 8.295 l -0.547,1.086 h -1.623 c -0.027,0 -0.045,0.022 -0.07,0.029 -0.041,0.01 -0.072,0.02 -0.106,0.044 -0.036,0.025 -0.057,0.054 -0.08,0.091 -0.014,0.021 -0.04,0.03 -0.049,0.056 -0.006,0.019 0.006,0.035 0.003,0.054 -0.003,0.018 -0.02,0.029 -0.02,0.049 0,0.026 0.022,0.043 0.028,0.068 0.01,0.042 0.02,0.074 0.045,0.109 0.025,0.035 0.054,0.057 0.091,0.079 0.021,0.014 0.03,0.039 0.055,0.048 l 4.541,1.529 h -8.52 C 35.32,74.18 34.522,72.992 33.383,72.32 Z m 10.138,8.531 0.814,-4.614 h 1.612 l 0.572,0.192 c 0.059,0.066 0.139,0.112 0.235,0.112 0.017,0 0.027,-0.016 0.044,-0.019 l 1.813,0.61 v 0.051 c 0,0.178 0.144,0.322 0.322,0.322 h 0.049 v 3.345 h -5.461 z m 6.432,4.621 c -1.69,0 -3.229,-0.468 -4.083,-1.204 h 7.957 c -0.844,0.654 -2.266,1.204 -3.874,1.204 z m 0.004,-1.827 h -0.331 v -2.149 h 0.331 z M 50.6,80.851 v -3.345 h 0.048 c 0.178,0 0.322,-0.145 0.322,-0.322 v -0.068 l 1.754,-0.597 c 0.021,0.004 0.033,0.022 0.055,0.022 0.1,0 0.181,-0.051 0.239,-0.122 l 0.536,-0.183 h 1.593 l 0.812,4.614 H 50.6 Z m 13.998,-5.288 h -9.06 l 4.5,-1.529 c 0.024,-0.009 0.033,-0.035 0.055,-0.048 0.037,-0.023 0.065,-0.044 0.091,-0.079 0.024,-0.035 0.035,-0.066 0.045,-0.108 0.006,-0.025 0.028,-0.042 0.028,-0.069 0,-0.02 -0.018,-0.032 -0.021,-0.051 -0.003,-0.019 0.009,-0.035 0.003,-0.053 -0.009,-0.024 -0.034,-0.033 -0.048,-0.055 -0.023,-0.037 -0.044,-0.065 -0.08,-0.091 -0.034,-0.024 -0.066,-0.035 -0.107,-0.045 -0.025,-0.006 -0.043,-0.028 -0.069,-0.028 H 58.642 L 58.08,72.32 h 8.52 c -1.127,0.666 -1.899,1.844 -2.002,3.243 z m 7.365,-3.243 c 0.184,0 0.333,-0.149 0.333,-0.333 V 70.72 c 0.058,-0.023 0.11,-0.059 0.146,-0.115 l 0.923,-1.399 h 0.157 v 0.73 c 0,0.326 0.1,0.63 0.269,0.884 l -1.662,2.003 -0.618,-0.502 h 0.452 z m 0.897,0.631 1.39,-1.675 c 0.254,0.168 0.558,0.267 0.885,0.267 0.439,0 0.844,-0.189 1.137,-0.488 l 2.36,1.896 z m 6.839,0.032 -3.076,-2.471 c 0.072,-0.181 0.115,-0.374 0.115,-0.577 v -5.847 l 3.378,-5.122 1.008,2.533 c -0.021,0.027 -0.056,0.042 -0.067,0.074 -0.029,0.08 -0.025,0.169 0.012,0.247 l 6.402,13.58 z m 2.106,-11.11 0.805,-0.38 6.982,14.889 -0.771,0.371 z m 7.75,15.274 3.087,6.562 h -0.203 l -3.044,-6.485 z m 3.123,8.358 c -1.602,0 -3.018,-0.529 -3.861,-1.162 h 3.381 c 0.014,0.002 0.023,0.011 0.037,0.011 h 0.915 c 0.006,0 0.012,0 0.016,0 0.01,0 0.016,-0.01 0.026,-0.011 h 3.586 c -0.879,0.712 -2.421,1.162 -4.1,1.162 z"
         id="path20"
         style="fill:#ffffff" /><path
         d="m 26.679,22.391 c -0.506,0 -0.903,0.397 -0.903,0.903 0,0.507 0.405,0.919 0.903,0.919 0.498,0 0.902,-0.412 0.902,-0.919 0,-0.506 -0.396,-0.903 -0.902,-0.903 z m 0,1.5 c -0.326,0 -0.581,-0.262 -0.581,-0.597 0,-0.326 0.255,-0.581 0.581,-0.581 0.325,0 0.58,0.255 0.58,0.581 0,0.334 -0.255,0.597 -0.58,0.597 z"
         id="path22"
         style="fill:#ffffff" /><path
         d="m 49.907,35.879 c 0.721,0 1.285,-0.575 1.285,-1.31 0,-0.708 -0.577,-1.283 -1.285,-1.283 -0.691,0 -1.274,0.588 -1.274,1.283 0,0.723 0.572,1.31 1.274,1.31 z m 0,-2.271 c 0.54,0 0.963,0.422 0.963,0.961 0,0.554 -0.423,0.987 -0.963,0.987 -0.525,0 -0.952,-0.443 -0.952,-0.987 0,-0.521 0.436,-0.961 0.952,-0.961 z"
         id="path24"
         style="fill:#ffffff" /><path
         d="m 46.754,37.894 c 0.456,0 0.813,-0.359 0.813,-0.816 0,-0.44 -0.372,-0.813 -0.813,-0.813 -0.431,0 -0.81,0.38 -0.81,0.813 0,0.442 0.371,0.816 0.81,0.816 z m 0,-1.307 c 0.293,0 0.49,0.253 0.49,0.49 0,0.277 -0.215,0.494 -0.49,0.494 -0.26,0 -0.487,-0.231 -0.487,-0.494 0,-0.252 0.236,-0.49 0.487,-0.49 z"
         id="path26"
         style="fill:#ffffff" /><path
         d="m 46.754,34.669 c 0.328,0 0.604,-0.279 0.604,-0.609 0,-0.324 -0.271,-0.588 -0.604,-0.588 -0.319,0 -0.578,0.264 -0.578,0.588 0,0.336 0.259,0.609 0.578,0.609 z m 0,-0.875 c 0.156,0 0.282,0.119 0.282,0.266 0,0.153 -0.132,0.287 -0.282,0.287 -0.141,0 -0.256,-0.129 -0.256,-0.287 0,-0.149 0.112,-0.266 0.256,-0.266 z"
         id="path28"
         style="fill:#ffffff" /><path
         d="m 52.435,33.827 c 0,0.336 0.261,0.609 0.581,0.609 0.326,0 0.603,-0.279 0.603,-0.609 0,-0.324 -0.271,-0.587 -0.603,-0.587 -0.327,0 -0.581,0.258 -0.581,0.587 z m 0.581,-0.264 c 0.154,0 0.28,0.119 0.28,0.265 0,0.156 -0.128,0.287 -0.28,0.287 -0.143,0 -0.259,-0.129 -0.259,-0.287 0,-0.149 0.113,-0.265 0.259,-0.265 z"
         id="path30"
         style="fill:#ffffff" /><path
         d="m 46.986,43.672 c -0.319,0 -0.579,0.27 -0.579,0.602 0,0.332 0.26,0.602 0.579,0.602 0.333,0 0.604,-0.27 0.604,-0.602 10e-4,-0.327 -0.276,-0.602 -0.604,-0.602 z m 0,0.881 c -0.144,0 -0.257,-0.123 -0.257,-0.279 0,-0.151 0.118,-0.279 0.257,-0.279 0.15,0 0.282,0.13 0.282,0.279 10e-4,0.151 -0.129,0.279 -0.282,0.279 z"
         id="path32"
         style="fill:#ffffff" /><path
         d="m 51.854,30.681 c 0.438,0 0.795,-0.358 0.795,-0.799 0,-0.422 -0.364,-0.778 -0.795,-0.778 -0.412,0 -0.773,0.364 -0.773,0.778 -0.001,0.433 0.354,0.799 0.773,0.799 z m 0,-1.327 c 0.295,0 0.545,0.242 0.545,0.528 0,0.303 -0.244,0.549 -0.545,0.549 -0.284,0 -0.523,-0.251 -0.523,-0.549 -0.001,-0.281 0.243,-0.528 0.523,-0.528 z"
         id="path34"
         style="fill:#ffffff" /><path
         d="m 48.078,19.1 c -0.063,0.063 -0.063,0.165 0,0.228 0.031,0.032 0.073,0.047 0.114,0.047 0.041,0 0.083,-0.016 0.114,-0.047 l 0.819,-0.819 h 1.564 l 0.818,0.819 c 0.032,0.032 0.073,0.047 0.114,0.047 0.041,0 0.082,-0.016 0.114,-0.047 0.063,-0.063 0.063,-0.165 0,-0.228 l -0.864,-0.864 v -1.475 l 0.864,-0.864 c 0.063,-0.063 0.063,-0.165 0,-0.228 -0.064,-0.063 -0.164,-0.063 -0.229,0 l -0.865,0.866 H 49.17 l -0.866,-0.866 c -0.063,-0.063 -0.165,-0.063 -0.228,0 -0.063,0.063 -0.063,0.165 0,0.228 l 0.827,0.827 v 1.549 z"
         id="path36"
         style="fill:#ffffff" /></g></g></svg>
