<?xml version="1.0" encoding="UTF-8" standalone="no"?>
<svg
   width="32"
   zoomAndPan="magnify"
   viewBox="0 0 24 23.999999"
   height="32"
   preserveAspectRatio="xMidYMid"
   version="1.0"
   id="svg312"
   sodipodi:docname="star.svg"
   inkscape:version="1.2.2 (b0a8486541, 2022-12-01)"
   xmlns:inkscape="http://www.inkscape.org/namespaces/inkscape"
   xmlns:sodipodi="http://sodipodi.sourceforge.net/DTD/sodipodi-0.dtd"
   xmlns="http://www.w3.org/2000/svg"
   xmlns:svg="http://www.w3.org/2000/svg">
  <sodipodi:namedview
     id="namedview314"
     pagecolor="#ffffff"
     bordercolor="#000000"
     borderopacity="0.25"
     inkscape:showpageshadow="2"
     inkscape:pageopacity="0.0"
     inkscape:pagecheckerboard="0"
     inkscape:deskcolor="#d1d1d1"
     showgrid="false"
     inkscape:zoom="3.26"
     inkscape:cx="200"
     inkscape:cy="143.71166"
     inkscape:window-width="2560"
     inkscape:window-height="1374"
     inkscape:window-x="0"
     inkscape:window-y="29"
     inkscape:window-maximized="1"
     inkscape:current-layer="svg312" />
  <defs
     id="defs134">
    <clipPath
       id="a93d39d2ec">
      <path
         d="M 1.816406,164.66406 H 62 v 17.19141 H 1.816406 Z m 0,0"
         clip-rule="nonzero"
         id="path2" />
    </clipPath>
    <clipPath
       id="e4678f948b">
      <path
         d="m 50,170 h 13.851562 v 11.85547 H 50 Z m 0,0"
         clip-rule="nonzero"
         id="path5" />
    </clipPath>
    <clipPath
       id="cd458c45b1">
      <path
         d="m 0.519531,140.19922 h 41.109375 v 61.28515 H 0.519531 Z m 0,0"
         clip-rule="nonzero"
         id="path8" />
    </clipPath>
    <clipPath
       id="a29312fd04">
      <path
         d="m 0.519531,164.66406 h 49.328125 v 36.82031 H 0.519531 Z m 0,0"
         clip-rule="nonzero"
         id="path11" />
    </clipPath>
    <clipPath
       id="a63c9f054b">
      <path
         d="M 87.878906,91.351562 H 171 V 115.26953 H 87.878906 Z m 0,0"
         clip-rule="nonzero"
         id="path14" />
    </clipPath>
    <clipPath
       id="784754d00c">
      <path
         d="m 154,99 h 19.83203 v 16.26953 H 154 Z m 0,0"
         clip-rule="nonzero"
         id="path17" />
    </clipPath>
    <clipPath
       id="5b8084543f">
      <path
         d="M 86.082031,57.390625 H 142.88281 V 142 H 86.082031 Z m 0,0"
         clip-rule="nonzero"
         id="path20" />
    </clipPath>
    <clipPath
       id="094086043b">
      <path
         d="M 86.082031,91.351562 H 154.84375 V 142 H 86.082031 Z m 0,0"
         clip-rule="nonzero"
         id="path23" />
    </clipPath>
    <clipPath
       id="b4fa38e757">
      <path
         d="m 154,99 h 0.84375 v 43.59375 H 154 Z m 0,0"
         clip-rule="nonzero"
         id="path26" />
    </clipPath>
    <clipPath
       id="585e023773">
      <path
         d="M 181.41406,28.808594 H 228 v 13.453125 h -46.58594 z m 0,0"
         clip-rule="nonzero"
         id="path29" />
    </clipPath>
    <clipPath
       id="56c1743469">
      <path
         d="m 218,33 h 11.24609 v 9.261719 H 218 Z m 0,0"
         clip-rule="nonzero"
         id="path32" />
    </clipPath>
    <clipPath
       id="f43f09de2a">
      <path
         d="m 180.41406,10 h 31.39063 v 47 h -31.39063 z m 0,0"
         clip-rule="nonzero"
         id="path35" />
    </clipPath>
    <clipPath
       id="f9c877e3bd">
      <path
         d="m 180.41406,28.808594 h 38.11719 V 57 h -38.11719 z m 0,0"
         clip-rule="nonzero"
         id="path38" />
    </clipPath>
    <clipPath
       id="b6bb2043ef">
      <path
         d="m 218,33 h 0.53125 V 57.066406 H 218 Z m 0,0"
         clip-rule="nonzero"
         id="path41" />
    </clipPath>
    <clipPath
       id="099d5d341a">
      <path
         d="M 28.976562,49.433594 H 73 V 62.136719 H 28.976562 Z m 0,0"
         clip-rule="nonzero"
         id="path44" />
    </clipPath>
    <clipPath
       id="5aac44f01f">
      <path
         d="m 63,53 h 10.820312 v 9.136719 H 63 Z m 0,0"
         clip-rule="nonzero"
         id="path47" />
    </clipPath>
    <clipPath
       id="3f47905a3d">
      <path
         d="M 28.035156,31.6875 H 57.933594 V 76.53125 H 28.035156 Z m 0,0"
         clip-rule="nonzero"
         id="path50" />
    </clipPath>
    <clipPath
       id="7d26b95818">
      <path
         d="m 28.035156,49.433594 h 35.875 v 26.90625 h -35.875 z m 0,0"
         clip-rule="nonzero"
         id="path53" />
    </clipPath>
    <clipPath
       id="1c3a37b789">
      <path
         d="m 63,53 h 0.910156 V 76.339844 H 63 Z m 0,0"
         clip-rule="nonzero"
         id="path56" />
    </clipPath>
    <clipPath
       id="8630cca92d">
      <path
         d="M 174.84766,139.125 H 211 v 10.46484 h -36.15234 z m 0,0"
         clip-rule="nonzero"
         id="path59" />
    </clipPath>
    <clipPath
       id="f4680b7ad3">
      <path
         d="m 203,142 h 9.21875 v 7.58984 H 203 Z m 0,0"
         clip-rule="nonzero"
         id="path62" />
    </clipPath>
    <clipPath
       id="11083c098a">
      <path
         d="m 174.07422,124.51563 h 24.66406 V 161 h -24.66406 z m 0,0"
         clip-rule="nonzero"
         id="path65" />
    </clipPath>
    <clipPath
       id="bf67a0efc6">
      <path
         d="m 174.07422,139.125 h 29.89453 V 161 h -29.89453 z m 0,0"
         clip-rule="nonzero"
         id="path68" />
    </clipPath>
    <clipPath
       id="078cc4613f">
      <path
         d="m 203,142 h 0.96875 v 19.14062 H 203 Z m 0,0"
         clip-rule="nonzero"
         id="path71" />
    </clipPath>
    <clipPath
       id="9a46e194e8">
      <path
         d="M 249.66406,94.753906 H 298 v 13.453124 h -48.33594 z m 0,0"
         clip-rule="nonzero"
         id="path74" />
    </clipPath>
    <clipPath
       id="f782d3591c">
      <path
         d="m 288,99 h 11.47656 v 9.20703 H 288 Z m 0,0"
         clip-rule="nonzero"
         id="path77" />
    </clipPath>
    <clipPath
       id="078953fc8e">
      <path
         d="m 248.62891,75.148438 h 32.88281 v 49.328122 h -32.88281 z m 0,0"
         clip-rule="nonzero"
         id="path80" />
    </clipPath>
    <clipPath
       id="5b5ea9421b">
      <path
         d="m 248.62891,94.753906 h 39.60937 v 29.722654 h -39.60937 z m 0,0"
         clip-rule="nonzero"
         id="path83" />
    </clipPath>
    <clipPath
       id="e5fc39e02f">
      <path
         d="m 288,99 h 0.23828 v 25.47656 H 288 Z m 0,0"
         clip-rule="nonzero"
         id="path86" />
    </clipPath>
    <clipPath
       id="f4ab894a3c">
      <path
         d="M 224.70703,172.12891 H 294 v 19.42968 h -69.29297 z m 0,0"
         clip-rule="nonzero"
         id="path89" />
    </clipPath>
    <clipPath
       id="67c9365839">
      <path
         d="m 279,179 h 16.71094 v 12.55859 H 279 Z m 0,0"
         clip-rule="nonzero"
         id="path92" />
    </clipPath>
    <clipPath
       id="75064faac5">
      <path
         d="m 223.23047,144.21484 h 46.33594 V 214 h -46.33594 z m 0,0"
         clip-rule="nonzero"
         id="path95" />
    </clipPath>
    <clipPath
       id="eee1222f6d">
      <path
         d="m 223.23047,172.12891 h 56.80078 V 214 h -56.80078 z m 0,0"
         clip-rule="nonzero"
         id="path98" />
    </clipPath>
    <clipPath
       id="ffb989b8ec">
      <path
         d="m 279,179 h 1.03125 v 35.46875 H 279 Z m 0,0"
         clip-rule="nonzero"
         id="path101" />
    </clipPath>
    <clipPath
       id="da26c3f9e2">
      <path
         d="M 92.71875,13.660156 H 127 v 9.71875 H 92.71875 Z m 0,0"
         clip-rule="nonzero"
         id="path104" />
    </clipPath>
    <clipPath
       id="54acb9d34c">
      <path
         d="m 119,17 h 8.09766 v 6.378906 H 119 Z m 0,0"
         clip-rule="nonzero"
         id="path107" />
    </clipPath>
    <clipPath
       id="02effc4939">
      <path
         d="M 91.996094,0 H 115.16406 V 34.378906 H 91.996094 Z m 0,0"
         clip-rule="nonzero"
         id="path110" />
    </clipPath>
    <clipPath
       id="928fe3fabd">
      <path
         d="m 91.996094,13.660156 h 27.652346 v 20.71875 H 91.996094 Z m 0,0"
         clip-rule="nonzero"
         id="path113" />
    </clipPath>
    <clipPath
       id="d4032de86c">
      <path
         d="m 119,17 h 0.64844 V 34.378906 H 119 Z m 0,0"
         clip-rule="nonzero"
         id="path116" />
    </clipPath>
    <clipPath
       id="3b914aa92b">
      <path
         d="M 109.125,188.82031 H 145 v 9.71875 h -35.875 z m 0,0"
         clip-rule="nonzero"
         id="path119" />
    </clipPath>
    <clipPath
       id="48de5d6cd3">
      <path
         d="m 137,192 h 8.75 v 6.53906 H 137 Z m 0,0"
         clip-rule="nonzero"
         id="path122" />
    </clipPath>
    <clipPath
       id="4a0989fe3e">
      <path
         d="m 108.36328,174.42969 h 23.91797 v 35.875 h -23.91797 z m 0,0"
         clip-rule="nonzero"
         id="path125" />
    </clipPath>
    <clipPath
       id="81d8c8eb71">
      <path
         d="m 108.36328,188.82031 h 29.14844 v 21.48438 h -29.14844 z m 0,0"
         clip-rule="nonzero"
         id="path128" />
    </clipPath>
    <clipPath
       id="e9e72e319a">
      <path
         d="m 137,192 h 0.51172 v 18.30469 H 137 Z m 0,0"
         clip-rule="nonzero"
         id="path131" />
    </clipPath>
    <clipPath
       id="8630cca92d-3">
      <path
         d="M 174.84766,139.125 H 211 v 10.46484 h -36.15234 z m 0,0"
         clip-rule="nonzero"
         id="path59-6" />
    </clipPath>
    <clipPath
       id="f4680b7ad3-7">
      <path
         d="m 203,142 h 9.21875 v 7.58984 H 203 Z m 0,0"
         clip-rule="nonzero"
         id="path62-5" />
    </clipPath>
    <clipPath
       id="11083c098a-3">
      <path
         d="m 174.07422,124.51563 h 24.66406 V 161 h -24.66406 z m 0,0"
         clip-rule="nonzero"
         id="path65-5" />
    </clipPath>
    <clipPath
       id="bf67a0efc6-6">
      <path
         d="m 174.07422,139.125 h 29.89453 V 161 h -29.89453 z m 0,0"
         clip-rule="nonzero"
         id="path68-2" />
    </clipPath>
    <clipPath
       id="078cc4613f-9">
      <path
         d="m 203,142 h 0.96875 v 19.14062 H 203 Z m 0,0"
         clip-rule="nonzero"
         id="path71-1" />
    </clipPath>
  </defs>
  <g
     id="g484"
     transform="matrix(0.60957783,0,0,0.64248694,-105.76769,-79.509412)"
     style="fill:#ffdd55">
    <g
       clip-path="url(#8630cca92d-3)"
       id="g214"
       style="fill:#ffdd55">
      <path
         fill="#000000"
         d="m 192.67578,134.27344 c 0.0547,0.50781 0.15234,1.00781 0.29297,1.49609 0.14062,0.49219 0.32031,0.96875 0.54297,1.42969 0.21875,0.46094 0.47656,0.89844 0.77344,1.3164 0.29296,0.41407 0.62109,0.80469 0.98437,1.16407 0.35938,0.36328 0.75,0.6914 1.16797,0.98437 0.41406,0.29688 0.85156,0.55469 1.3125,0.77344 0.46094,0.22266 0.9375,0.40234 1.42969,0.54297 0.48828,0.14062 0.98828,0.23828 1.49609,0.29297 3.23047,0.32031 6.47266,0.46875 9.71875,0.4414 -3.24609,-0.0234 -6.48828,0.1211 -9.71875,0.44532 -0.50781,0.0547 -1.00781,0.15234 -1.49609,0.29296 -0.49219,0.14063 -0.96875,0.32032 -1.42969,0.54297 -0.46094,0.21875 -0.89844,0.47657 -1.3125,0.77344 -0.41797,0.29297 -0.80859,0.62109 -1.16797,0.98438 -0.36328,0.35937 -0.69141,0.75 -0.98437,1.16406 -0.29688,0.41797 -0.55469,0.85547 -0.77344,1.3164 -0.22266,0.46094 -0.40235,0.9375 -0.54297,1.42969 -0.14063,0.48828 -0.23828,0.98828 -0.29297,1.4961 -0.32031,3.23046 -0.46875,6.47265 -0.44141,9.71875 0.0273,-3.2461 -0.12109,-6.48829 -0.44531,-9.71875 -0.0547,-0.50782 -0.15234,-1.00782 -0.29297,-1.4961 -0.14062,-0.49219 -0.32031,-0.96875 -0.53906,-1.42969 -0.22266,-0.46093 -0.48047,-0.89843 -0.77344,-1.3164 -0.29687,-0.41406 -0.625,-0.80469 -0.98437,-1.16406 -0.36328,-0.36329 -0.75,-0.69141 -1.16797,-0.98438 -0.41797,-0.29687 -0.85547,-0.55469 -1.31641,-0.77734 -0.46093,-0.21875 -0.93359,-0.39844 -1.42578,-0.53907 -0.49219,-0.14062 -0.98828,-0.23828 -1.49609,-0.29296 -3.23438,-0.32422 -6.47266,-0.46875 -9.71875,-0.44532 3.24609,0.0273 6.48437,-0.12109 9.71875,-0.4414 0.50781,-0.0547 1.0039,-0.15235 1.49609,-0.29297 0.49219,-0.14063 0.96485,-0.32031 1.42578,-0.54297 0.46094,-0.21875 0.89844,-0.47656 1.31641,-0.77344 0.41797,-0.29297 0.80469,-0.62109 1.16797,-0.98437 0.35937,-0.35938 0.6875,-0.75 0.98437,-1.16797 0.29297,-0.41406 0.55078,-0.85156 0.77344,-1.3125 0.21875,-0.46094 0.39844,-0.9375 0.53906,-1.42969 0.14063,-0.48828 0.23828,-0.98828 0.29297,-1.49609 0.32422,-3.23438 0.47266,-6.47266 0.44531,-9.71875 -0.0273,3.24609 0.1211,6.48437 0.44141,9.71875 z m 0,0"
         fill-opacity="1"
         fill-rule="nonzero"
         id="path212"
         style="fill:#ffdd55" />
    </g>
    <g
       clip-path="url(#f4680b7ad3-7)"
       id="g218"
       style="fill:#ffdd55">
      <path
         fill="#000000"
         d="m 212.95312,147.63281 c 0.0547,0.51953 0.19532,1.01172 0.42188,1.48047 0.22266,0.47266 0.51953,0.89063 0.88672,1.25781 0.37109,0.36719 0.78906,0.66407 1.25781,0.89063 0.46875,0.22265 0.96094,0.36719 1.48047,0.42187 1.63281,0.16407 3.27344,0.23828 4.91797,0.22266 -1.64453,-0.0117 -3.28516,0.0625 -4.91797,0.22656 -0.51953,0.0547 -1.01172,0.19531 -1.48047,0.42188 -0.46875,0.22265 -0.88672,0.51953 -1.25781,0.89062 -0.36719,0.36719 -0.66406,0.78516 -0.88672,1.25391 -0.22656,0.46875 -0.36719,0.96484 -0.42188,1.48047 -0.16406,1.63672 -0.23828,3.27734 -0.22656,4.91797 0.0156,-1.64063 -0.0625,-3.28125 -0.22265,-4.91797 -0.0586,-0.51563 -0.19922,-1.01172 -0.42188,-1.48047 -0.22656,-0.46875 -0.52344,-0.88672 -0.89062,-1.25391 -0.36719,-0.37109 -0.78907,-0.66797 -1.25782,-0.89062 -0.46875,-0.22657 -0.96093,-0.36719 -1.48047,-0.42188 -1.63281,-0.16406 -3.27343,-0.23828 -4.91406,-0.22656 1.64063,0.0156 3.28125,-0.0586 4.91406,-0.22266 0.51954,-0.0547 1.01172,-0.19922 1.48047,-0.42187 0.46875,-0.22656 0.89063,-0.52344 1.25782,-0.89063 0.36718,-0.36718 0.66406,-0.78515 0.89062,-1.25781 0.22266,-0.46875 0.36328,-0.96094 0.42188,-1.48047 0.16406,-1.63281 0.23828,-3.27344 0.22265,-4.91797 -0.0117,1.64453 0.0625,3.28516 0.22656,4.91797 z m 0,0"
         fill-opacity="1"
         fill-rule="nonzero"
         id="path216"
         style="fill:#ffdd55" />
    </g>
    <g
       clip-path="url(#11083c098a-3)"
       id="g222"
       style="fill:#ffdd55">
      <path
         fill="#000000"
         d="m 192.67578,134.27344 c 0.0547,0.50781 0.15234,1.00781 0.29297,1.49609 0.14062,0.49219 0.32031,0.96875 0.54297,1.42969 0.21875,0.46094 0.47656,0.89844 0.77344,1.3164 0.29296,0.41407 0.62109,0.80469 0.98437,1.16407 0.35938,0.36328 0.75,0.6914 1.16797,0.98437 0.41406,0.29688 0.85156,0.55469 1.3125,0.77344 0.46094,0.22266 0.9375,0.40234 1.42969,0.54297 0.48828,0.14062 0.98828,0.23828 1.49609,0.29297 3.23047,0.32031 6.47266,0.46875 9.71875,0.4414 -3.24609,-0.0234 -6.48828,0.1211 -9.71875,0.44532 -0.50781,0.0547 -1.00781,0.15234 -1.49609,0.29296 -0.49219,0.14063 -0.96875,0.32032 -1.42969,0.54297 -0.46094,0.21875 -0.89844,0.47657 -1.3125,0.77344 -0.41797,0.29297 -0.80859,0.62109 -1.16797,0.98438 -0.36328,0.35937 -0.69141,0.75 -0.98437,1.16406 -0.29688,0.41797 -0.55469,0.85547 -0.77344,1.3164 -0.22266,0.46094 -0.40235,0.9375 -0.54297,1.42969 -0.14063,0.48828 -0.23828,0.98828 -0.29297,1.4961 -0.32031,3.23046 -0.46875,6.47265 -0.44141,9.71875 0.0273,-3.2461 -0.12109,-6.48829 -0.44531,-9.71875 -0.0547,-0.50782 -0.15234,-1.00782 -0.29297,-1.4961 -0.14062,-0.49219 -0.32031,-0.96875 -0.53906,-1.42969 -0.22266,-0.46093 -0.48047,-0.89843 -0.77344,-1.3164 -0.29687,-0.41406 -0.625,-0.80469 -0.98437,-1.16406 -0.36328,-0.36329 -0.75,-0.69141 -1.16797,-0.98438 -0.41797,-0.29687 -0.85547,-0.55469 -1.31641,-0.77734 -0.46093,-0.21875 -0.93359,-0.39844 -1.42578,-0.53907 -0.49219,-0.14062 -0.98828,-0.23828 -1.49609,-0.29296 -3.23438,-0.32422 -6.47266,-0.46875 -9.71875,-0.44532 3.24609,0.0273 6.48437,-0.12109 9.71875,-0.4414 0.50781,-0.0547 1.0039,-0.15235 1.49609,-0.29297 0.49219,-0.14063 0.96485,-0.32031 1.42578,-0.54297 0.46094,-0.21875 0.89844,-0.47656 1.31641,-0.77344 0.41797,-0.29297 0.80469,-0.62109 1.16797,-0.98437 0.35937,-0.35938 0.6875,-0.75 0.98437,-1.16797 0.29297,-0.41406 0.55078,-0.85156 0.77344,-1.3125 0.21875,-0.46094 0.39844,-0.9375 0.53906,-1.42969 0.14063,-0.48828 0.23828,-0.98828 0.29297,-1.49609 0.32422,-3.23438 0.47266,-6.47266 0.44531,-9.71875 -0.0273,3.24609 0.1211,6.48437 0.44141,9.71875 z m 0,0"
         fill-opacity="1"
         fill-rule="nonzero"
         id="path220"
         style="fill:#ffdd55" />
    </g>
    <g
       clip-path="url(#bf67a0efc6-6)"
       id="g226"
       style="fill:#ffdd55">
      <path
         fill="#000000"
         d="m 192.67578,134.27344 c 0.0547,0.50781 0.15234,1.00781 0.29297,1.49609 0.14062,0.49219 0.32031,0.96875 0.54297,1.42969 0.21875,0.46094 0.47656,0.89844 0.77344,1.3164 0.29296,0.41407 0.62109,0.80469 0.98437,1.16407 0.35938,0.36328 0.75,0.6914 1.16797,0.98437 0.41406,0.29688 0.85156,0.55469 1.3125,0.77344 0.46094,0.22266 0.9375,0.40234 1.42969,0.54297 0.48828,0.14062 0.98828,0.23828 1.49609,0.29297 3.23047,0.32031 6.47266,0.46875 9.71875,0.4414 -3.24609,-0.0234 -6.48828,0.1211 -9.71875,0.44532 -0.50781,0.0547 -1.00781,0.15234 -1.49609,0.29296 -0.49219,0.14063 -0.96875,0.32032 -1.42969,0.54297 -0.46094,0.21875 -0.89844,0.47657 -1.3125,0.77344 -0.41797,0.29297 -0.80859,0.62109 -1.16797,0.98438 -0.36328,0.35937 -0.69141,0.75 -0.98437,1.16406 -0.29688,0.41797 -0.55469,0.85547 -0.77344,1.3164 -0.22266,0.46094 -0.40235,0.9375 -0.54297,1.42969 -0.14063,0.48828 -0.23828,0.98828 -0.29297,1.4961 -0.32031,3.23046 -0.46875,6.47265 -0.44141,9.71875 0.0273,-3.2461 -0.12109,-6.48829 -0.44531,-9.71875 -0.0547,-0.50782 -0.15234,-1.00782 -0.29297,-1.4961 -0.14062,-0.49219 -0.32031,-0.96875 -0.53906,-1.42969 -0.22266,-0.46093 -0.48047,-0.89843 -0.77344,-1.3164 -0.29687,-0.41406 -0.625,-0.80469 -0.98437,-1.16406 -0.36328,-0.36329 -0.75,-0.69141 -1.16797,-0.98438 -0.41797,-0.29687 -0.85547,-0.55469 -1.31641,-0.77734 -0.46093,-0.21875 -0.93359,-0.39844 -1.42578,-0.53907 -0.49219,-0.14062 -0.98828,-0.23828 -1.49609,-0.29296 -3.23438,-0.32422 -6.47266,-0.46875 -9.71875,-0.44532 3.24609,0.0273 6.48437,-0.12109 9.71875,-0.4414 0.50781,-0.0547 1.0039,-0.15235 1.49609,-0.29297 0.49219,-0.14063 0.96485,-0.32031 1.42578,-0.54297 0.46094,-0.21875 0.89844,-0.47656 1.31641,-0.77344 0.41797,-0.29297 0.80469,-0.62109 1.16797,-0.98437 0.35937,-0.35938 0.6875,-0.75 0.98437,-1.16797 0.29297,-0.41406 0.55078,-0.85156 0.77344,-1.3125 0.21875,-0.46094 0.39844,-0.9375 0.53906,-1.42969 0.14063,-0.48828 0.23828,-0.98828 0.29297,-1.49609 0.32422,-3.23438 0.47266,-6.47266 0.44531,-9.71875 -0.0273,3.24609 0.1211,6.48437 0.44141,9.71875 z m 0,0"
         fill-opacity="1"
         fill-rule="nonzero"
         id="path224"
         style="fill:#ffdd55" />
    </g>
    <g
       clip-path="url(#078cc4613f-9)"
       id="g230"
       style="fill:#ffdd55">
      <path
         fill="#000000"
         d="m 212.95312,147.63281 c 0.0547,0.51953 0.19532,1.01172 0.42188,1.48047 0.22266,0.47266 0.51953,0.89063 0.88672,1.25781 0.37109,0.36719 0.78906,0.66407 1.25781,0.89063 0.46875,0.22265 0.96094,0.36719 1.48047,0.42187 1.63281,0.16407 3.27344,0.23828 4.91797,0.22266 -1.64453,-0.0117 -3.28516,0.0625 -4.91797,0.22656 -0.51953,0.0547 -1.01172,0.19531 -1.48047,0.42188 -0.46875,0.22265 -0.88672,0.51953 -1.25781,0.89062 -0.36719,0.36719 -0.66406,0.78516 -0.88672,1.25391 -0.22656,0.46875 -0.36719,0.96484 -0.42188,1.48047 -0.16406,1.63672 -0.23828,3.27734 -0.22656,4.91797 0.0156,-1.64063 -0.0625,-3.28125 -0.22265,-4.91797 -0.0586,-0.51563 -0.19922,-1.01172 -0.42188,-1.48047 -0.22656,-0.46875 -0.52344,-0.88672 -0.89062,-1.25391 -0.36719,-0.37109 -0.78907,-0.66797 -1.25782,-0.89062 -0.46875,-0.22657 -0.96093,-0.36719 -1.48047,-0.42188 -1.63281,-0.16406 -3.27343,-0.23828 -4.91406,-0.22656 1.64063,0.0156 3.28125,-0.0586 4.91406,-0.22266 0.51954,-0.0547 1.01172,-0.19922 1.48047,-0.42187 0.46875,-0.22656 0.89063,-0.52344 1.25782,-0.89063 0.36718,-0.36718 0.66406,-0.78515 0.89062,-1.25781 0.22266,-0.46875 0.36328,-0.96094 0.42188,-1.48047 0.16406,-1.63281 0.23828,-3.27344 0.22265,-4.91797 -0.0117,1.64453 0.0625,3.28516 0.22656,4.91797 z m 0,0"
         fill-opacity="1"
         fill-rule="nonzero"
         id="path228"
         style="fill:#ffdd55" />
    </g>
  </g>
</svg>
